<svg xmlns="http://www.w3.org/2000/svg" viewBox="0 0 64 64" width="64" height="64">
  <!-- Heart shape -->
  <path d="M32 56 C32 56 6 38 6 20 C6 10 14 4 22 4 C27 4 31 7 32 10 C33 7 37 4 42 4 C50 4 58 10 58 20 C58 38 32 56 32 56Z" fill="#FF4466"/>
  <!-- Highlight -->
  <path d="M22 8 C16 8 10 13 10 20 C10 22 10 24 12 28" fill="none" stroke="#FF8899" stroke-width="3" stroke-linecap="round"/>
  <!-- Shine dot -->
  <circle cx="18" cy="16" r="3" fill="#FF8899" opacity="0.7"/>
  <!-- Darker bottom -->
  <path d="M32 56 C32 56 6 38 6 20 C6 20 10 40 32 50 C54 40 58 20 58 20 C58 38 32 56 32 56Z" fill="#DD2244" opacity="0.4"/>
</svg>
